<svg width="27" height="27" viewBox="0 0 27 27" fill="none" xmlns="http://www.w3.org/2000/svg">
<path fill-rule="evenodd" clip-rule="evenodd" d="M14.5 27C21.4036 27 27 21.4036 27 14.5C27 7.59644 21.4036 2 14.5 2C7.59644 2 2 7.59644 2 14.5C2 21.4036 7.59644 27 14.5 27ZM14.5 9.25C13.9477 9.25 13.5 8.80229 13.5 8.25V4.5C13.5 3.94772 13.9477 3.5 14.5 3.5C15.0523 3.5 15.5 3.94772 15.5 4.5V8.25C15.5 8.80229 15.0523 9.25 14.5 9.25ZM14.5 25.5C13.9477 25.5 13.5 25.0523 13.5 24.5V22C13.5 21.4477 13.9477 21 14.5 21C15.0523 21 15.5 21.4477 15.5 22V24.5C15.5 25.0523 15.0523 25.5 14.5 25.5ZM22 13.5C21.4477 13.5 21 13.9477 21 14.5C21 15.0523 21.4477 15.5 22 15.5H24.5C25.0523 15.5 25.5 15.0523 25.5 14.5C25.5 13.9477 25.0523 13.5 24.5 13.5H22ZM3.5 14.5C3.5 13.9477 3.94772 13.5 4.5 13.5L8.25 13.5C8.80229 13.5 9.25 13.9477 9.25 14.5C9.25 15.0523 8.80229 15.5 8.25 15.5L4.5 15.5C3.94772 15.5 3.5 15.0523 3.5 14.5ZM19.9672 7.61847C19.5767 8.009 19.5767 8.64216 19.9672 9.03269C20.3577 9.42321 20.9909 9.42321 21.3814 9.03269L22.2653 8.1488C22.6558 7.75828 22.6558 7.12512 22.2653 6.73459C21.8748 6.34407 21.2416 6.34407 20.8511 6.73459L19.9672 7.61847ZM6.72189 22.278C6.33137 21.8875 6.33137 21.2543 6.72189 20.8638L8.48966 19.096C8.88018 18.7055 9.51335 18.7055 9.90387 19.096C10.2944 19.4865 10.2944 20.1197 9.90387 20.5102L8.13611 22.278C7.74558 22.6685 7.11242 22.6685 6.72189 22.278ZM20.5104 19.0966C20.1199 18.706 19.4867 18.706 19.0962 19.0966C18.7057 19.4871 18.7057 20.1203 19.0962 20.5108L20.864 22.2785C21.2545 22.6691 21.8877 22.6691 22.2782 22.2785C22.6687 21.888 22.6687 21.2549 22.2782 20.8643L20.5104 19.0966ZM6.72186 6.7222C7.11238 6.33167 7.74554 6.33167 8.13607 6.7222L10.7877 9.37385C11.1782 9.76437 11.1782 10.3975 10.7877 10.7881C10.3972 11.1786 9.76403 11.1786 9.37351 10.7881L6.72186 8.13641C6.33133 7.74589 6.33133 7.11272 6.72186 6.7222Z" fill="#5D5D5D"/>
</svg>
